<?xml version="1.0" encoding="UTF-8"?>
<!DOCTYPE svg PUBLIC "-//W3C//DTD SVG 1.1//EN" "http://www.w3.org/Graphics/SVG/1.1/DTD/svg11.dtd">
<!-- Creator: CorelDRAW 2021 (64-Bit) -->
<svg xmlns="http://www.w3.org/2000/svg" xml:space="preserve" width="12px" height="12px" version="1.1" style="shape-rendering:geometricPrecision; text-rendering:geometricPrecision; image-rendering:optimizeQuality; fill-rule:evenodd; clip-rule:evenodd"
viewBox="0 0 0.15 0.152"
 xmlns:xlink="http://www.w3.org/1999/xlink"
 xmlns:xodm="http://www.corel.com/coreldraw/odm/2003">
 <defs>
  <style type="text/css">
   <![CDATA[
    .fil0 {fill:white}
   ]]>
  </style>
 </defs>
 <g id="Layer_x0020_1">
  <metadata id="CorelCorpID_0Corel-Layer"/>
  <path class="fil0" d="M0.14 0.062c0.004,-0.01 0.003,-0.021 -0.003,-0.031 -0.008,-0.014 -0.025,-0.022 -0.041,-0.018 -0.007,-0.008 -0.018,-0.013 -0.029,-0.013 -0.016,0 -0.031,0.011 -0.036,0.027 -0.011,0.002 -0.02,0.008 -0.026,0.018 -0.008,0.014 -0.006,0.033 0.005,0.045 -0.004,0.01 -0.002,0.022 0.003,0.031 0.008,0.015 0.025,0.022 0.042,0.019 0.007,0.008 0.017,0.012 0.028,0.012 0.017,0 0.032,-0.01 0.037,-0.026 0.01,-0.002 0.02,-0.009 0.025,-0.019 0.008,-0.014 0.007,-0.032 -0.005,-0.045l0 0zm-0.011 -0.026l0 0c0.003,0.006 0.004,0.013 0.003,0.019 0,0 -0.001,0 -0.001,0l-0.03 -0.018c-0.002,-0.001 -0.004,-0.001 -0.005,0l-0.036 0.021 0 -0.015 0.03 -0.017c0.013,-0.008 0.031,-0.004 0.039,0.01zm-0.069 0.031l0 0 0.015 -0.008 0.015 0.008 0 0.018 -0.015 0.008 -0.015 -0.008 0 -0.018zm0.007 -0.057l0 0c0.007,0 0.013,0.002 0.018,0.007 0,0 0,0 0,0l-0.031 0.018c-0.001,0 -0.002,0.002 -0.002,0.004l0 0.041 -0.013 -0.008 0 -0.034c0,-0.015 0.012,-0.028 0.028,-0.028l0 0zm-0.053 0.04l0 0c0.003,-0.006 0.008,-0.01 0.015,-0.013l0 0.037c0,0.001 0.001,0.003 0.002,0.004l0.036 0.02 -0.013 0.008 -0.03 -0.017c-0.013,-0.008 -0.018,-0.025 -0.01,-0.039zm0.008 0.066l0 0c-0.004,-0.006 -0.005,-0.012 -0.004,-0.019 0.001,0 0.001,0 0.001,0.001l0.031 0.017c0.001,0.001 0.003,0.001 0.005,0l0.035 -0.02 0 0.015 -0.029 0.017c-0.014,0.007 -0.031,0.003 -0.039,-0.011l0 0zm0.061 0.026l0 0c-0.006,0 -0.013,-0.002 -0.018,-0.006 0,0 0.001,-0.001 0.001,-0.001l0.03 -0.017c0.002,-0.001 0.003,-0.003 0.003,-0.005l0 -0.041 0.013 0.008 0 0.034c0,0.016 -0.013,0.028 -0.029,0.028l0 0zm0.054 -0.04l0 0c-0.004,0.006 -0.009,0.011 -0.015,0.013l0 -0.036c0,-0.002 -0.001,-0.004 -0.003,-0.005l-0.035 -0.02 0.013 -0.008 0.029 0.017c0.014,0.008 0.018,0.026 0.01,0.039l0.001 0z"/>
 </g>
</svg>
